<svg xmlns="http://www.w3.org/2000/svg" viewBox="0 0 2300.07 512"><g id="a2e7c16e-6be2-4921-a83c-14bd0ebb4aa6" data-name="icon"><path d="M645,168a64,64,0,0,0-64-64H197a64,64,0,0,0-64,64V552a64,64,0,0,0,64,64H522.85L645,514.36Z" transform="translate(-133 -104)" style="fill:#fdd835"/><path d="M516.13,280.72a12.77,12.77,0,0,1,12.61,12.61v14.94a12.76,12.76,0,0,1-12.61,12.6H469.45l-11.67,78.44H504a12.77,12.77,0,0,1,12.61,12.61v14.93A12.77,12.77,0,0,1,504,439.46H451.71l-7.94,54.62a13.11,13.11,0,0,1-4,7,10.89,10.89,0,0,1-7.7,2.8H412a10.36,10.36,0,0,1-10.28-10.27v-.93l7.94-53.22h-64l-7.94,54.62a13.18,13.18,0,0,1-4,7,10.89,10.89,0,0,1-7.7,2.8H306a10.36,10.36,0,0,1-10.27-10.27v-.93l7.94-53.22H262.63A12.77,12.77,0,0,1,250,426.85V411.92a12.77,12.77,0,0,1,12.61-12.61h47.15l11.67-78.44H274.76a12.76,12.76,0,0,1-12.6-12.6V293.33a12.77,12.77,0,0,1,12.6-12.61h52.76l8.4-54.62a13.22,13.22,0,0,1,4-7,10.31,10.31,0,0,1,7.24-2.79H367.2a10.36,10.36,0,0,1,10.28,10.27V228l-7.94,52.76h64l8.4-54.62a13.22,13.22,0,0,1,4-7,10.31,10.31,0,0,1,7.24-2.79h20.07a10.36,10.36,0,0,1,10.28,10.27V228l-7.94,52.76ZM415.76,399.31l11.67-78.44h-64L351.8,399.31Z" transform="translate(-133 -104)" style="fill:#0388d2"/><path d="M645,514.36H575.39a64,64,0,0,0-64,64V616h11.46Z" transform="translate(-133 -104)" style="fill:#f2b420"/><path d="M586.85,514.36a64,64,0,0,0-64,64V616L645,514.36Z" transform="translate(-133 -104)" style="fill:#fcc02e"/></g><g id="ba3d9593-d36a-45fd-a1b2-2ec84b0f6f46" data-name="text01"><path d="M834.06,267.46q11.52-7.09,30.72-7.1,44.93,0,63,33.4Q938.89,277.64,953.1,269t37.25-8.64q37.64,0,55.87,22.65t18.24,64.13V453.51a10.5,10.5,0,0,1-10.37,10.37h-14.2a10.5,10.5,0,0,1-10.37-10.37V351q0-57.6-45.31-57.6-20.75,0-33,13.82t-12.29,41.09V453.51a10.5,10.5,0,0,1-10.36,10.37H914.32A10.5,10.5,0,0,1,904,453.51V351q0-57.6-45.31-57.6-20.75,0-33,13.82t-12.28,41.09V453.51A10.52,10.52,0,0,1,803,463.88H788.75a10.5,10.5,0,0,1-10.37-10.37V274.56a10.48,10.48,0,0,1,10.37-10.36H803a10.5,10.5,0,0,1,10.37,10.36v11.91A78.32,78.32,0,0,1,834.06,267.46Z" transform="translate(-133 -104)" style="fill:#fdd835"/><path d="M1262.83,286.47q23.81,26.11,23.81,71v10.37a10.48,10.48,0,0,1-10.37,10.36h-132.1v2.31q.76,25.33,15.56,39.74t38.2,14.4q19.2,0,29.76-5a60.92,60.92,0,0,0,19-14.21,20.67,20.67,0,0,1,5.57-4.22,16.21,16.21,0,0,1,6.72-1.15h11.52a10.42,10.42,0,0,1,7.68,3.07,8.77,8.77,0,0,1,2.69,7.29q-1.55,10.38-11.33,21.32t-28,18.43q-18.24,7.49-43.59,7.49-24.57,0-43.77-11.33a83.22,83.22,0,0,1-30.53-31.3q-11.33-20-13.63-44.93-.78-11.52-.77-17.66t.77-17.66a103,103,0,0,1,13.63-43A84,84,0,0,1,1154,271.49q19-11.13,44-11.13Q1239,260.36,1262.83,286.47ZM1252.08,346v-1.15q0-23.43-14.79-37.44t-39.36-14q-22.28,0-37.82,14.21t-15.94,37.25V346Z" transform="translate(-133 -104)" style="fill:#fdd835"/><path d="M1387.85,267.46q11.52-7.09,30.72-7.1,44.92,0,63,33.4,11.13-16.12,25.34-24.76t37.25-8.64q37.62,0,55.87,22.65t18.24,64.13V453.51a10.5,10.5,0,0,1-10.37,10.37h-14.21a10.5,10.5,0,0,1-10.36-10.37V351q0-57.6-45.32-57.6-20.73,0-33,13.82t-12.29,41.09V453.51a10.5,10.5,0,0,1-10.37,10.37h-14.2a10.5,10.5,0,0,1-10.37-10.37V351q0-57.6-45.31-57.6-20.75,0-33,13.82t-12.29,41.09V453.51a10.5,10.5,0,0,1-10.36,10.37h-14.21a10.5,10.5,0,0,1-10.37-10.37V274.56a10.48,10.48,0,0,1,10.37-10.36h14.21a10.48,10.48,0,0,1,10.36,10.36v11.91A78.51,78.51,0,0,1,1387.85,267.46Z" transform="translate(-133 -104)" style="fill:#fdd835"/><path d="M1846.57,364.42c0,6.14-.26,12-.77,17.66q-3.45,39.18-27.07,62.4t-63.94,23.24q-40.32,0-63.93-23.24t-27.07-62.4q-.39-4.21-.39-17.66,0-14.21.39-18.43,3.06-39.17,26.88-62.4t64.12-23.23q40.32,0,64.13,23.23T1845.8,346Q1846.57,354.44,1846.57,364.42Zm-52-56.06q-14-15-39.75-15t-39.74,15q-14,15-16.32,39.55-.39,4.6-.38,16.51,0,11.52.38,15.74,2.31,24.58,16.32,39.56t39.74,15q25.73,0,39.75-15t16.32-39.56q.77-8.43.77-15.74t-.77-16.51Q1808.55,323.34,1794.54,308.36Z" transform="translate(-133 -104)" style="fill:#fdd835"/><path d="M1952.58,422q6.72,8.84,25.54,8.83h20.35a10.48,10.48,0,0,1,10.37,10.37v12.29a10.5,10.5,0,0,1-10.37,10.37h-24.19q-32.64,0-48-17.09t-15.36-50.11V297.22H1882.5a10.48,10.48,0,0,1-10.36-10.37V274.56a10.48,10.48,0,0,1,10.36-10.36h28.42V201.6a10.48,10.48,0,0,1,10.37-10.36h14.21a10.5,10.5,0,0,1,10.37,10.36v62.6h48.76A10.48,10.48,0,0,1,2005,274.56v12.29a10.48,10.48,0,0,1-10.37,10.37h-48.76v99.46Q1945.87,413.2,1952.58,422Z" transform="translate(-133 -104)" style="fill:#0388d2"/><path d="M2171,337.54v-5q0-18.81-12.48-29T2126,293.38q-15.36,0-24,5.18t-16.32,15.56a12.72,12.72,0,0,1-5,4.22,18.93,18.93,0,0,1-7.3,1.15h-11.52a10.59,10.59,0,0,1-7.49-3.07,8.58,8.58,0,0,1-2.88-7.3q1.15-11.52,11.33-22.84t27.07-18.63a90.14,90.14,0,0,1,36.1-7.29q35.72,0,57.79,20t22.08,56.07V453.51a10.5,10.5,0,0,1-10.37,10.37h-14.21A10.5,10.5,0,0,1,2171,453.51V437.76q-6.15,13.83-26.12,21.89a105.85,105.85,0,0,1-39.93,8.07q-19.59,0-35-7.11t-23.61-19.39a48.41,48.41,0,0,1-8.26-27.65q0-28.8,21.51-45.12t57.21-22.08Zm0,30.72-45.32,7.3q-25,3.84-38.78,12.48t-13.82,21.69q0,9.6,8.83,17.28t26.88,7.68q27.64,0,44.93-15.74T2171,377.86Z" transform="translate(-133 -104)" style="fill:#0388d2"/><path d="M2374.9,267.84q14.78,7.5,23.23,18.63V274.56a10.48,10.48,0,0,1,10.37-10.36h14.21a10.48,10.48,0,0,1,10.36,10.36V461.19q0,40.69-23,63.93t-67.58,23.24q-28.8,0-48.38-8.84t-29-21.88q-9.41-13.06-10.17-26.5a8.52,8.52,0,0,1,2.88-7.3,10.59,10.59,0,0,1,7.49-3.07h11.52a10.8,10.8,0,0,1,7.29,2.31q2.68,2.3,5.38,8.06,3.83,8.83,14.59,16.51t34.56,7.68q59.52,0,59.52-49.53V441.6q-19.59,26.13-59.52,26.12a85.19,85.19,0,0,1-43.2-11.14,83,83,0,0,1-31.1-31.68q-11.73-20.53-12.87-48.19l-.38-12.67.38-12.68q1.16-27.64,12.87-48.19t30.91-31.68q19.2-11.13,43.39-11.13Q2360.11,260.36,2374.9,267.84Zm-72.19,41.67q-14.79,16.13-16.32,43.77L2286,364l.39,10.75q1.53,27.65,16.32,43.77t39.74,16.13q24.57,0,39.55-15.17t16.13-41.66q.38-3.84.38-13.82t-.38-13.83Q2397,323.35,2382,308.36t-39.55-15Q2317.49,293.38,2302.71,309.51Z" transform="translate(-133 -104)" style="fill:#0388d2"/></g></svg>